<mxfile host="app.diagrams.net" modified="2023-08-07T13:58:27.279Z" agent="Mozilla/5.0 (Macintosh; Intel Mac OS X 10.13; rv:109.0) Gecko/20100101 Firefox/115.0" version="21.5.0" etag="HltBFUMm8Nf1WQ_FaLA7" type="github">
  <diagram name="PÃ¡gina-1" id="TWlXFs-nHRrzam9THKGe">
    <mxGraphModel>
      <root>
        <mxCell id="0" />
        <mxCell id="1" parent="0" />
      </root>
    </mxGraphModel>
  </diagram>
</mxfile>
